<svg xmlns="http://www.w3.org/2000/svg" width="512" height="512" viewBox="0 0 512 512" fill="none"><path d="M0 75C0 33.5786 33.5786 0 75 0H437C478.421 0 512 33.5786 512 75V437C512 478.421 478.421 512 437 512H75C33.5786 512 0 478.421 0 437V75Z" fill="url(#paint0_linear_102_116)"></path><path d="M325.997 397.4H275.597V186.2C275.597 163.4 285.197 145.8 303.997 133.4C322.797 121 344.397 115 369.197 115H431.197V156.2H369.197C345.597 156.2 325.997 166.6 325.997 186.2V229.4H421.197V270.6H325.997V397.4Z" fill="white"></path><path d="M80.5 326.6V185.8C80.5 154.2 103.7 131 130.9 121.8C144.5 117.4 158.9 115 173.7 115H238.9V157.4H173.7C150.9 157.4 130.5 166.6 130.5 185.8V229H229.7V270.6H130.5V326.6C130.5 345.8 150.9 355 173.7 355H238.9V397.4H173.7C143.7 397.4 115.7 389.4 95.7 367C85.7 355.8 80.5 342.2 80.5 326.6Z" fill="white"></path><defs>
<linearGradient id="paint0_linear_102_116" x1="256" y1="0" x2="256" y2="512" gradientUnits="userSpaceOnUse">
<stop stop-color="#4066FF"></stop>
<stop offset="1" stop-color="#2850F1"></stop>
</linearGradient>
</defs></svg>