<svg width="48" height="48" viewBox="0 0 48 48" fill="none" xmlns="http://www.w3.org/2000/svg">
<path d="M0 7.03125C0 3.148 3.148 0 7.03125 0H40.9688C44.852 0 48 3.148 48 7.03125V40.9688C48 44.852 44.852 48 40.9688 48H7.03125C3.148 48 0 44.852 0 40.9688V7.03125Z" fill="url(#paint0_linear_1_27)"/>
<path d="M30.5624 37.2563H25.8374V17.4563C25.8374 15.3187 26.7374 13.6688 28.4999 12.5063C30.2624 11.3437 32.2874 10.7812 34.6124 10.7812H40.4249V14.6437H34.6124C32.3999 14.6437 30.5624 15.6188 30.5624 17.4563V21.5063H39.4874V25.3688H30.5624V37.2563Z" fill="white"/>
<path d="M7.54688 30.6188V17.4187C7.54688 14.4562 9.72188 12.2813 12.2719 11.4188C13.5469 11.0062 14.8969 10.7812 16.2844 10.7812H22.3969V14.7563H16.2844C14.1469 14.7563 12.2344 15.6187 12.2344 17.4187V21.4688H21.5344V25.3688H12.2344V30.6188C12.2344 32.4188 14.1469 33.2813 16.2844 33.2813H22.3969V37.2563H16.2844C13.4719 37.2563 10.8469 36.5063 8.97188 34.4063C8.03438 33.3563 7.54688 32.0813 7.54688 30.6188Z" fill="white"/>
<defs>
<linearGradient id="paint0_linear_1_27" x1="24" y1="0" x2="24" y2="48" gradientUnits="userSpaceOnUse">
<stop stop-color="#4066FF"/>
<stop offset="1" stop-color="#2850F1"/>
</linearGradient>
</defs>
</svg>
